<?xml version="1.0" encoding="UTF-8" standalone="no"?>
<!-- Created with Inkscape (http://www.inkscape.org/) -->

<svg
   width="164.83542mm"
   height="153.45833mm"
   viewBox="0 0 164.83542 153.45833"
   version="1.1"
   id="svg1"
   inkscape:version="1.3.2 (091e20e, 2023-11-25)"
   sodipodi:docname="links_unten.svg"
   xmlns:inkscape="http://www.inkscape.org/namespaces/inkscape"
   xmlns:sodipodi="http://sodipodi.sourceforge.net/DTD/sodipodi-0.dtd"
   xmlns="http://www.w3.org/2000/svg"
   xmlns:svg="http://www.w3.org/2000/svg">
  <sodipodi:namedview
     id="namedview1"
     pagecolor="#ffffff"
     bordercolor="#000000"
     borderopacity="0.25"
     inkscape:showpageshadow="2"
     inkscape:pageopacity="0.0"
     inkscape:pagecheckerboard="0"
     inkscape:deskcolor="#d1d1d1"
     inkscape:document-units="mm"
     inkscape:zoom="0.48999669"
     inkscape:cx="267.34874"
     inkscape:cy="256.12418"
     inkscape:window-width="1440"
     inkscape:window-height="872"
     inkscape:window-x="0"
     inkscape:window-y="28"
     inkscape:window-maximized="0"
     inkscape:current-layer="layer1">
    <sodipodi:guide
       position="-21.960417,224.63125"
       orientation="0,793.70079"
       id="guide109"
       inkscape:locked="false" />
    <sodipodi:guide
       position="188.03958,224.63125"
       orientation="1122.5197,0"
       id="guide110"
       inkscape:locked="false" />
    <sodipodi:guide
       position="188.03958,-72.368757"
       orientation="0,-793.70079"
       id="guide111"
       inkscape:locked="false" />
    <sodipodi:guide
       position="-21.960417,-72.368757"
       orientation="-1122.5197,0"
       id="guide112"
       inkscape:locked="false" />
  </sodipodi:namedview>
  <defs
     id="defs1" />
  <g
     inkscape:label="Ebene 1"
     inkscape:groupmode="layer"
     id="layer1"
     transform="translate(-21.960417,-71.172915)">
    <g
       fill="#eee6d3"
       fill-opacity="1"
       stroke="None"
       id="g259"
       transform="matrix(0.26458333,0,0,0.26458333,21.960417,-71.702083)">
      <path
         d="m 0,755 c 104.9,9.31 217.43,44.5 300.08,110.92 C 382.72,932.35 430.76,1022.87 457,1120 H 623 C 599.6,972.43 488.45,860.49 377,766 c 0.51,-0.99 1.25,-2.14 2,-3 -9.83,2.29 -19.3,-7.58 -15,-17 -2.63,2.54 -4.11,-1.97 -7,-1 0.76,-1.08 -0.01,-2.63 0,-3 -3.09,6.75 -11.62,11.62 -8,21 -6.27,-0.04 -3.03,-8.39 -5.75,-12.25 -2.73,-3.85 -5.23,-8.25 -6.25,-12.75 6.63,0.73 5.25,10.72 11,12 1.91,-3.94 4.26,-9.75 9,-11 -1.65,-1.76 -11.75,0.18 -14.25,-5.75 -2.51,-5.92 -10.34,-5.44 -13.5,-10.5 -3.17,-5.05 -10.86,-5.02 -13.25,-10.75 -10.23,1.52 -4.54,-12.01 -6,-18 -7,0 -14,0 -21,0 0,6 0,12 0,18 -2.19,-0.52 -5.62,1.14 -7,-1 -2.85,-2.85 -0.48,-9.81 -1,-14 -0.52,-4.19 0,-10.61 0,-15 -1.91,4.64 -12,-7.19 -15,-8 -6.61,0.6 -13.37,-0.45 -20,0 0,4.33 0,8.67 0,13 5.47,1.01 21.34,-3.56 17,6 -3.88,2.63 -12.68,-1.98 -17,0 0,4.33 0,8.67 0,13 6.78,1.85 10.96,-2.47 18,0 7.04,2.47 -1.23,8.23 -7,6 -5.77,-2.23 -12.62,2.42 -18,-1 0.39,-1.2 -1.59,-10.01 -1,-15 0.59,-4.99 0.2,-12.42 0,-18 -0.2,-5.58 -0.52,-12.75 7,-11 7.52,1.75 10.91,-1.57 18,0 -17.34,-6.4 -31.06,-19.92 -47.25,-30.75 -16.2,-10.82 -30.76,-21.13 -48.06,-29.94 -17.29,-8.82 -35.5,-16.4 -53.46,-24.54 C 96.26,573.63 77.35,566.49 59.02,558.98 40.7,551.46 18.87,547.1 0,540 v 215 m 213,-87 c 8.78,3.04 11.99,13.09 5,20 12.17,3.46 9.26,24.32 -4,23 -3.65,0.76 -13.97,2.99 -18,1 -4.75,-2.35 -1.52,-14.71 -2,-20 -0.48,-5.29 -0.54,-16.39 0,-22 0.54,-5.61 15.74,-3.13 19,-2 m 78,95 c -6.61,-3.24 -1.28,-16.71 -3,-24 7.26,-1.36 17.85,0.59 16,10 -1.85,9.41 -17.1,1.79 -13,14 m 32,-20 c -1.87,0.49 -4.1,-0.37 -6,0 0.38,7.25 17.95,5.9 12,16 -2.71,5.99 -13.54,5.51 -17,1 3.41,1.29 16.63,-0.73 12.24,-5.25 -4.38,-4.51 -13.39,-3.03 -12.23,-10.76 1.16,-7.73 14.03,-6.23 14.99,-0.99 -1.33,0 -2.67,0 -4,0 z"
         id="path259" />
    </g>
    <g
       fill="#a8ac92"
       fill-opacity="1"
       stroke="None"
       id="g388"
       transform="matrix(0.26458333,0,0,0.26458333,21.960417,-71.702083)">
      <path
         d="m 0,915 c 19.42,-15.54 39.52,-31.19 62,-41 4.11,-1.79 8.72,-3.97 13,-6 6.96,-3.29 14.48,-8.78 21.23,-12.77 6.75,-3.99 12.4,-14.11 19.77,-10.23 -6.64,15.02 -20.71,25.8 -24.99,43.01 C 86.73,905.22 67.22,911.13 54,920 37.12,930.45 18.82,940.07 0,946 v 10 c 10.39,2.67 20.09,9.26 31,10 16.68,1.14 32.1,-7 46.74,-14.26 14.65,-7.25 28.47,-10.98 44.33,-17.67 15.87,-6.69 35.98,-6.76 53.93,-6.07 20.19,0.77 38.78,11.71 59,9 0.28,2.33 -0.87,3.42 2,6 -5.25,1.59 -9.66,5.33 -15,7 -14.94,4.91 -27.03,12.35 -43.01,14.99 -15.98,2.64 -32.62,6.98 -48.99,9.01 -9.91,1.23 -20.12,1.41 -30.07,0.07 -9.95,-1.33 -19.54,-1.04 -29.15,-3.85 -9.61,-2.8 -22.64,2.64 -31.78,0.78 10.56,9.27 26.77,8.7 37.7,18.31 10.92,9.6 26.36,11.61 39.3,16.69 15.92,6.25 24.26,-3.88 37.23,-11.77 12.96,-7.89 32.29,-5.9 47.77,-6.23 15.48,-0.33 29.32,7.12 44,10 8.18,1.61 16.07,4.55 24.02,6.98 7.96,2.42 19.44,1.62 24.98,7.02 -34.62,12.12 -73.43,8.36 -111,9 -6.95,0 -13.17,1 -20,1 -8.9,0.86 -19.38,1.44 -29,1 0.08,1.26 2.06,0.56 2,2 4.71,2.76 13.59,3.15 19,4 4.12,0.65 8.99,1.43 13,2 8.1,1.16 15.37,2.25 23,5 15.97,5.75 27.81,22.96 39,35 -3.26,-0.05 -6.13,-1.59 -9,-3 -0.28,2.7 4.67,2.76 4,6 -12.07,-0.1 -24.98,-0.12 -35,-6 -19.8,-11.27 -27.65,-36.78 -52,-41 17.83,10.43 23.34,31.27 37,46 11.04,13.58 16.67,30.92 23,47 H 457 C 430.76,1022.87 382.72,932.35 300.08,865.92 217.43,799.5 104.9,764.31 0,755 Z"
         id="path388" />
    </g>
  </g>
</svg>
