<?xml version="1.0" encoding="UTF-8" standalone="no"?>
<!-- Created with Inkscape (http://www.inkscape.org/) -->

<svg
   width="308.62402mm"
   height="73.93692mm"
   viewBox="0 0 308.62402 73.93692"
   version="1.1"
   id="svg1"
   inkscape:version="1.3.2 (091e20e, 2023-11-25)"
   sodipodi:docname="logo3.svg"
   xmlns:inkscape="http://www.inkscape.org/namespaces/inkscape"
   xmlns:sodipodi="http://sodipodi.sourceforge.net/DTD/sodipodi-0.dtd"
   xmlns="http://www.w3.org/2000/svg"
   xmlns:svg="http://www.w3.org/2000/svg">
  <sodipodi:namedview
     id="namedview1"
     pagecolor="#ffffff"
     bordercolor="#000000"
     borderopacity="0.25"
     inkscape:showpageshadow="2"
     inkscape:pageopacity="0.0"
     inkscape:pagecheckerboard="0"
     inkscape:deskcolor="#d1d1d1"
     inkscape:document-units="mm"
     inkscape:zoom="0.94437534"
     inkscape:cx="439.44392"
     inkscape:cy="76.770323"
     inkscape:window-width="1440"
     inkscape:window-height="872"
     inkscape:window-x="0"
     inkscape:window-y="28"
     inkscape:window-maximized="0"
     inkscape:current-layer="layer1" />
  <defs
     id="defs1">
    <rect
       x="345.91309"
       y="-1.356522"
       width="679.61749"
       height="111.2348"
       id="rect1" />
  </defs>
  <g
     inkscape:label="Ebene 1"
     inkscape:groupmode="layer"
     id="layer1"
     transform="translate(-59.002086,-111.125)">
    <path
       d="m 89.814061,116.78247 c 0.682625,4.67518 3.725334,8.96143 7.672917,11.64166 4.161892,1.92352 8.297332,4.05342 12.784662,5.207 4.48734,1.15358 8.89265,2.64319 12.87992,5.11175 2.2225,1.37583 4.28096,2.86544 6.35,4.49792 1.68804,1.3335 3.43958,3.08769 4.7625,4.7625 4.37092,5.53508 7.76817,11.67077 9.26042,18.52083 0.47625,2.18546 1.22502,4.33917 1.32291,6.61458 0.0979,2.27542 0.71173,5.08 0.26459,7.40834 -0.44715,2.32833 1.19856,4.93712 3.51896,3.78354 2.32304,-1.15094 1.24354,-4.37885 1.24354,-6.42938 -0.0767,-0.80433 -0.22754,-1.93675 -0.26459,-2.91041 -0.0397,-1.03188 -0.1852,-1.88913 -0.26458,-2.91042 -0.41275,-5.38162 -2.03729,-10.16 -3.96875,-15.08125 -0.65087,-1.65894 -1.52135,-3.18558 -2.38125,-4.7625 -0.18785,-0.34131 -0.381,-0.69585 -0.52917,-1.05833 -1.46579,-2.36009 -3.34168,-4.61434 -5.02708,-6.87917 -1.09008,-1.25148 -2.53471,-2.53471 -3.70417,-3.70417 -4.23862,-3.62214 -8.98789,-6.9215 -14.02291,-8.99583 -0.83873,-0.24342 -1.5584,-0.49477 -2.38125,-0.79375 -3.45017,-1.25677 -7.16756,-2.33098 -10.58334,-3.43958 -5.19112,-0.96573 -12.054412,-5.52186 -12.170829,-11.37708 -0.0979,-0.80169 -0.05556,-2.26748 -0.264583,-3.175 -0.584729,-1.54517 -2.690813,-2.36009 -3.902604,-0.99219 -1.209146,1.36789 -0.830792,3.34169 -0.595313,4.96094 z"
       id="path241"
       style="stroke-width:0.264583" />
    <g
       fill="#0e4653"
       fill-opacity="1"
       stroke="None"
       id="g248"
       transform="matrix(0.26458333,0,0,0.26458333,-45.917187,23.649133)">
      <path
         d="m 523,441 c -8.94,1.73 -17.46,3.77 -26,7 -17.73222,5.55755 -32.21977,16.08634 -46,28 -15.63951,12.96334 -25.77955,29.87412 -36.01,46.99 -5.84,9.6 9.57,20.36 15.09,11.09 24.37376,-45.45602 52.10131,-61.8558 75.24,-69.76 8.87,-3.02 19.98,-5.95 29.68,-6.32 8.73,-1.25 19.34,-1.05 28,0 19.8,0.4 40.09,8.09 56,19 5.19,3.56 10.11,6.82 15,11 4.29,3.66 8.38,7.76 12,12 9.45,11.06 15.86,22.74 21,36 4.33,11.17 9,23.21 9,36 0.78,6.45 3.35,15.78 2,23 -1.35,7.22 4.26,15.08 12,13 13.18,-6.23 4.32,-33.01 3.93,-44.93 -0.4,-11.91 -7.54,-28.37 -12.16,-39.84 -4.61,-11.47 -12.06,-22.22 -19.85,-32.15 -7.79,-9.93 -15.87,-18.33 -26.67,-25.33 C 624.44,458.76 614.41,451.7 601.67,447.33 588.94,442.96 572.17,439 558,439 h -18 c -5.95,0 -11.38,0.92 -17,2 z"
         id="path248"
         sodipodi:nodetypes="cccscccccccscscccsccssc" />
    </g>
    <g
       fill="#a5a685"
       fill-opacity="1"
       stroke="None"
       id="g256"
       transform="matrix(0.26458333,0,0,0.26458333,-45.917187,23.649133)">
      <path
         d="m 558,485 c -11.13,-1.59 -25.71,0.83 -35.78,3.22 -10.06,2.39 -18.19,6.41 -26.97,11.03 -8.79,4.61 -14.06,9.81 -21.5,16.5 -7.43,6.7 -11.99,12.98 -17.45,21.55 -5.45,8.58 -8.05,15.49 -11.98,26.02 -3.93,10.53 -5.3619,20.19466 -5.32,32.92466 0.0425,12.91188 16.23,15.51534 17.02,2.77534 0.8,-12.73 3.4,-21.56 7.01,-31.99 3.6,-10.44 7.61,-16.24 13.22,-24.78 5.61,-8.55 10.87,-13 18.5,-19.5 7.63,-6.49 14.58,-10.46 24.18,-13.82 9.59,-3.37 23.39,-5.73 34.07,-4.93 10.68,0.8 21.07,3.56 30.31,7.7 9.23,4.13 15.01,8.81 22.44,15.55 7.44,6.74 11.05,13.36 16.32,21.68 5.28,8.31 8.12551,22.64923 10.1891,31.20192 3.03,9.26 0.35005,27.39258 8.5209,27.08808 12.57466,1.17344 12.58,-15.05 10.2,-24.2 -2.39,-9.14 -3.2,-22.06 -7.21,-30.79 -4.01,-8.73 -7.99,-17.51 -14,-25 -6.01,-7.49 -10.87,-13.61 -18.52,-19.48 -7.65,-5.87 -14.64,-10.52 -23.56,-14.44 -8.91,-3.93 -20.28,-6.97 -29.69,-8.31 z"
         id="path256"
         sodipodi:nodetypes="cccccsscccccsccccccssscc" />
    </g>
    <g
       fill="#93aaad"
       fill-opacity="1"
       stroke="None"
       id="g260"
       transform="matrix(0.26458333,0,0,0.26458333,-45.917187,23.649133)">
      <path
         d="m 418,543 c -12.68,-3.62 -13.48,10.78 -17,20 -3.53,9.22 -0.49,20.44 -4,32 -3.51,11.56 14.37,17.07 17,6 2.63,-11.07 1.48,-23.58 4.07,-31.93 2.6,-8.34 10.29,-23.12 -0.07,-26.07 z"
         id="path260" />
    </g>
    <text
       xml:space="preserve"
       transform="matrix(0.26458333,0,0,0.26458333,59.002086,111.125)"
       id="text1"
       style="white-space:pre;shape-inside:url(#rect1);fill:#000000;stroke-width:1.00157" />
    <text
       xml:space="preserve"
       style="font-size:3.175px;fill:#000000;stroke-width:0.264999"
       x="202.56732"
       y="123.68696"
       id="text2"><tspan
         sodipodi:role="line"
         id="tspan2"
         style="stroke-width:0.265"
         x="202.56732"
         y="123.68696"></tspan></text>
    <text
       xml:space="preserve"
       style="font-size:19.7556px;fill:#000000;stroke-width:0.264999"
       x="157.13913"
       y="122.383"
       id="text3"><tspan
         sodipodi:role="line"
         id="tspan3"
         style="font-size:19.7556px;fill:#0b4450;fill-opacity:1;stroke-width:0.265"
         x="157.13913"
         y="122.383"
         dy="3.9400001">Praxis für </tspan><tspan
         sodipodi:role="line"
         style="font-size:19.7556px;fill:#0b4450;fill-opacity:1;stroke-width:0.265"
         x="157.13913"
         y="147.0775"
         id="tspan4"
         dy="0 0 0 0 0 -0.11">Psychotherapie</tspan></text>
    <text
       xml:space="preserve"
       style="font-size:12.3472px;fill:#0b4450;fill-opacity:1;stroke-width:0.264999"
       x="157.3824"
       y="168.28951"
       id="text5"><tspan
         sodipodi:role="line"
         id="tspan5"
         style="font-size:12.3472px;stroke-width:0.265"
         x="157.3824"
         y="168.28951">Ute Seliger, M. Sc.</tspan></text>
    <text
       xml:space="preserve"
       style="font-size:12.3472px;fill:#0b4450;fill-opacity:1;stroke-width:0.264999"
       x="157.28961"
       y="182.51169"
       id="text5-6"><tspan
         sodipodi:role="line"
         id="tspan5-0"
         style="font-size:12.3472px;stroke-width:0.265"
         x="157.28961"
         y="182.51169">Psychologische Psychotherapeutin</tspan></text>
  </g>
</svg>
